<svg viewBox="0 0 24 24" fill="none" xmlns="http://www.w3.org/2000/svg">
<!-- Mesa de reunión -->
<ellipse cx="12" cy="16" rx="8" ry="3" stroke="currentColor" stroke-width="2" fill="none"/>
<!-- Personas en reunión -->
<circle cx="8" cy="8" r="2" stroke="currentColor" stroke-width="1.5" fill="none"/>
<rect x="6" y="10" width="4" height="5" rx="1" stroke="currentColor" stroke-width="1.5" fill="none"/>
<circle cx="16" cy="8" r="2" stroke="currentColor" stroke-width="1.5" fill="none"/>
<rect x="14" y="10" width="4" height="5" rx="1" stroke="currentColor" stroke-width="1.5" fill="none"/>
<!-- Casco en una persona (inspector) -->
<rect x="7" y="6.5" width="2" height="1.5" rx="0.5" stroke="currentColor" stroke-width="1" fill="currentColor" opacity="0.3"/>
<!-- Documentos sobre la mesa -->
<rect x="10" y="14" width="4" height="3" rx="0.5" stroke="currentColor" stroke-width="1" fill="none"/>
<path d="M11 15L13 15" stroke="currentColor" stroke-width="0.5"/>
<path d="M11 16L12.5 16" stroke="currentColor" stroke-width="0.5"/>
<!-- Laptop/presentación -->
<rect x="4" y="13" width="4" height="2.5" rx="0.3" stroke="currentColor" stroke-width="1" fill="none"/>
<rect x="4.5" y="13.5" width="3" height="1.5" rx="0.1" fill="currentColor" opacity="0.2"/>
<!-- Intercambio/entrega (flechas) -->
<path d="M9 12L11 12" stroke="currentColor" stroke-width="1.5" stroke-linecap="round"/>
<path d="M10 11L11 12L10 13" stroke="currentColor" stroke-width="1.5" stroke-linecap="round"/>
<!-- Apretón de manos simbolizando acuerdo -->
<path d="M11 6L13 6" stroke="currentColor" stroke-width="2" stroke-linecap="round"/>
<circle cx="11" cy="6" r="0.5" fill="currentColor"/>
<circle cx="13" cy="6" r="0.5" fill="currentColor"/>
<!-- Sello de aprobación -->
<circle cx="18" cy="14" r="1.5" stroke="currentColor" stroke-width="1" fill="none"/>
<path d="M17.5 14L18 14.5L18.5 14" stroke="currentColor" stroke-width="1" fill="none"/>
<!-- Indicador de satisfacción/calidad -->
<path d="M2 4L4 6L6 4" stroke="currentColor" stroke-width="1.5" stroke-linecap="round" stroke-linejoin="round"/>
</svg>