<svg viewBox="0 0 24 24" fill="none" xmlns="http://www.w3.org/2000/svg">
<!-- Bobina del sensor -->
<circle cx="12" cy="8" r="4" stroke="currentColor" stroke-width="2" fill="none"/>
<circle cx="12" cy="8" r="2" stroke="currentColor" stroke-width="1.5" fill="none"/>
<!-- Cable de conexión -->
<path d="M16 8L20 4" stroke="currentColor" stroke-width="2"/>
<rect x="20" y="2" width="2" height="4" rx="1" fill="currentColor"/>
<!-- Corrientes de Foucault -->
<path d="M8 12C10 12 10 14 12 14C14 14 14 12 16 12" stroke="currentColor" stroke-width="1.5" fill="none" opacity="0.7"/>
<path d="M7 15C9 15 9 17 11 17C13 17 13 15 15 15" stroke="currentColor" stroke-width="1.5" fill="none" opacity="0.7"/>
<path d="M9 18C11 18 11 20 13 20C15 20 15 18 17 18" stroke="currentColor" stroke-width="1.5" fill="none" opacity="0.7"/>
<!-- Material conductor -->
<rect x="6" y="16" width="12" height="6" rx="2" stroke="currentColor" stroke-width="2" fill="none"/>
<!-- Defecto alterando las corrientes -->
<circle cx="12" cy="19" r="1.5" stroke="currentColor" stroke-width="1" fill="none" opacity="0.8"/>
<!-- Indicador de campo electromagnético -->
<path d="M12 4L12 6" stroke="currentColor" stroke-width="1" opacity="0.6"/>
<path d="M16 8L18 8" stroke="currentColor" stroke-width="1" opacity="0.6"/>
<path d="M12 10L12 12" stroke="currentColor" stroke-width="1" opacity="0.6"/>
<path d="M8 8L6 8" stroke="currentColor" stroke-width="1" opacity="0.6"/>
</svg>